{"title":"Disconnect 2012 HDTV Xvid-spinzes","uid":8768758,"size":933485711,"categoryP":"video","categoryS":"movies","magnet":"?xt=urn:btih:b15b76181a08383d31a06014934f0c8d55651349&amp;dn=Disconnect+2012+HDTV+Xvid-spinzes&amp;tr=udp%3A%2F%2Ftracker.openbittorrent.com%3A80&amp;tr=udp%3A%2F%2Fopen.demonii.com%3A1337&amp;tr=udp%3A%2F%2Ftracker.coppersurfer.tk%3A6969&amp;tr=udp%3A%2F%2Fexodus.desync.com%3A6969","seeders":4,"leechers":1,"uploader":"srkfan","files":2,"time":1375399445,"description":"[b]SilverTorrent - Clean And Verified Torrents Download[/b]\n\n------------------------------------------------------\n\n\n &lt;a href=&quot;\nhttp://img594.imageshack.us/img594/6045/5bh6.jpg&quot; rel=&quot;nofollow&quot; target=&quot;_NEW&quot;&gt;\nhttp://img594.imageshack.us/img594/6045/5bh6.jpg&lt;/a&gt;\n\n\nNFO\n\nsorce used Disconnect.2012.ReadInfo.XViD.MP3.KingStoner.avi 1.89 GB (thanks)\ndeinterlaced , resized , used a white balance correction filter and sharpener \n\n\n\n[B] Format                                   : AVI\nFormat/Info                              : Audio Video Interleave\nFile size                                : 890 MiB\nDuration                                 : 1h 50mn\nOverall bit rate                         : 1 124 Kbps\nWriting application                      : MEncoder SVN-r33883(20110719-gcc4.5.2)\nWriting library                          : VirtualDub build 32842/release\n\nVideo\n\n\nID                                       : 0\nFormat                                   : MPEG-4 Visual\nFormat profile                           : Advanced Simple@L5\nFormat settings, BVOP                    : 2\nFormat settings, QPel                    : No\nFormat settings, GMC                     : No warppoints\nFormat settings, Matrix                  : Default (H.263)\nMuxing mode                              : Packed bitstream\nCodec ID                                 : XVID\nCodec ID/Hint                            : XviD\nDuration                                 : 1h 50mn\nBit rate                                 : 987 Kbps\nWidth                                    : 640 pixels\nHeight                                   : 360 pixels\nDisplay aspect ratio                     : 16:9\nFrame rate                               : 25.000 fps\nColor space                              : YUV\nChroma subsampling                       : 4:2:0\nBit depth                                : 8 bits\nScan type                                : Progressive\nCompression mode                         : Lossy\nBits/(Pixel*Frame)                       : 0.171\nStream size                              : 781 MiB (88%)\nWriting library                          : XviD 64\n\nAudio\n\n\nID                                       : 1\nFormat                                   : MPEG Audio\nFormat version                           : Version 1\nFormat profile                           : Layer 3\nMode                                     : Joint stereo\nMode extension                           : MS Stereo\nCodec ID                                 : 55\nCodec ID/Hint                            : MP3\nDuration                                 : 1h 50mn\nBit rate mode                            : Constant\nBit rate                                 : 128 Kbps\nChannel(s)                               : 2 channels\nSampling rate                            : 44.1 KHz\nCompression mode                         : Lossy\nStream size                              : 101 MiB (11%)\nAlignment                                : Split accross interleaves\nInterleave, duration                     : 40 ms (1.00 video frame)\nInterleave, preload duration             : 500 ms\nWriting library                          : LAME3.98.4 [/B]\n &lt;a href=&quot;\nhttp://www.imdb.com/title/tt1433811/&quot; rel=&quot;nofollow&quot; target=&quot;_NEW&quot;&gt;\nhttp://www.imdb.com/title/tt1433811/&lt;/a&gt;\n &lt;a href=&quot;\nhttp://img845.imageshack.us/img845/5139/cgr7.png&quot; rel=&quot;nofollow&quot; target=&quot;_NEW&quot;&gt;\nhttp://img845.imageshack.us/img845/5139/cgr7.png&lt;/a&gt; &lt;a href=&quot;\nhttp://img593.imageshack.us/img593/6417/mlbi.png&quot; rel=&quot;nofollow&quot; target=&quot;_NEW&quot;&gt;\nhttp://img593.imageshack.us/img593/6417/mlbi.png&lt;/a&gt; &lt;a href=&quot;\nhttp://img542.imageshack.us/img542/2700/fg9p.png&quot; rel=&quot;nofollow&quot; target=&quot;_NEW&quot;&gt;\nhttp://img542.imageshack.us/img542/2700/fg9p.png&lt;/a&gt; &lt;a href=&quot;\nhttp://img42.imageshack.us/img42/7203/6cw.png&quot; rel=&quot;nofollow&quot; target=&quot;_NEW&quot;&gt;\nhttp://img42.imageshack.us/img42/7203/6cw.png&lt;/a&gt; &lt;a href=&quot;\nhttp://img593.imageshack.us/img593/696/2mzw.png&quot; rel=&quot;nofollow&quot; target=&quot;_NEW&quot;&gt;\nhttp://img593.imageshack.us/img593/696/2mzw.png&lt;/a&gt;","torrent":{"xt":"urn:btih:b15b76181a08383d31a06014934f0c8d55651349","amp;dn":"Disconnect+2012+HDTV+Xvid-spinzes","amp;tr":["udp%3A%2F%2Ftracker.openbittorrent.com%3A80","udp%3A%2F%2Fopen.demonii.com%3A1337","udp%3A%2F%2Ftracker.coppersurfer.tk%3A6969","udp%3A%2F%2Fexodus.desync.com%3A6969"],"infoHash":"b15b76181a08383d31a06014934f0c8d55651349","infoHashBuffer":{"type":"Buffer","data":[177,91,118,24,26,8,56,61,49,160,96,20,147,79,12,141,85,101,19,73]},"announce":[],"urlList":[]}}